<?xml version="1.0" encoding="UTF-8" standalone="no"?>
<svg
   xmlns:dc="http://purl.org/dc/elements/1.1/"
   xmlns:cc="http://creativecommons.org/ns#"
   xmlns:rdf="http://www.w3.org/1999/02/22-rdf-syntax-ns#"
   xmlns:svg="http://www.w3.org/2000/svg"
   xmlns="http://www.w3.org/2000/svg"
   xmlns:sodipodi="http://sodipodi.sourceforge.net/DTD/sodipodi-0.dtd"
   xmlns:inkscape="http://www.inkscape.org/namespaces/inkscape"
   inkscape:version="1.0 (4035a4fb49, 2020-05-01)"
   sodipodi:docname="review.svg"
   xml:space="preserve"
   style="enable-background:new 0 0 512 512;"
   viewBox="0 0 512 512"
   y="0px"
   x="0px"
   id="Capa_1"
   version="1.1"><metadata
   id="metadata55"><rdf:RDF><cc:Work
       rdf:about=""><dc:format>image/svg+xml</dc:format><dc:type
         rdf:resource="http://purl.org/dc/dcmitype/StillImage" /><dc:title></dc:title></cc:Work></rdf:RDF></metadata><defs
   id="defs53"><filter
     id="filter59"
     inkscape:label="Invert"
     style="color-interpolation-filters:sRGB;"><feColorMatrix
       id="feColorMatrix57"
       result="color2"
       values="-1 0 0 0 1 0 -1 0 0 1 0 0 -1 0 1 -0.21 -0.72 -0.07 1 0 " /></filter><filter
     id="filter63"
     inkscape:label="Invert"
     style="color-interpolation-filters:sRGB;"><feColorMatrix
       id="feColorMatrix61"
       result="color2"
       values="-1 0 0 0 1 0 -1 0 0 1 0 0 -1 0 1 -0.21 -0.72 -0.07 1 0 " /></filter><filter
     id="filter67"
     inkscape:label="Invert"
     style="color-interpolation-filters:sRGB;"><feColorMatrix
       id="feColorMatrix65"
       result="color2"
       values="-1 0 0 0 1 0 -1 0 0 1 0 0 -1 0 1 -0.21 -0.72 -0.07 1 0 " /></filter><filter
     id="filter71"
     inkscape:label="Invert"
     style="color-interpolation-filters:sRGB;"><feColorMatrix
       id="feColorMatrix69"
       result="color2"
       values="-1 0 0 0 1 0 -1 0 0 1 0 0 -1 0 1 -0.21 -0.72 -0.07 1 0 " /></filter><filter
     id="filter75"
     inkscape:label="Invert"
     style="color-interpolation-filters:sRGB;"><feColorMatrix
       id="feColorMatrix73"
       result="color2"
       values="-1 0 0 0 1 0 -1 0 0 1 0 0 -1 0 1 -0.21 -0.72 -0.07 1 0 " /></filter><filter
     id="filter79"
     inkscape:label="Invert"
     style="color-interpolation-filters:sRGB;"><feColorMatrix
       id="feColorMatrix77"
       result="color2"
       values="-1 0 0 0 1 0 -1 0 0 1 0 0 -1 0 1 -0.21 -0.72 -0.07 1 0 " /></filter><filter
     id="filter83"
     inkscape:label="Invert"
     style="color-interpolation-filters:sRGB;"><feColorMatrix
       id="feColorMatrix81"
       result="color2"
       values="-1 0 0 0 1 0 -1 0 0 1 0 0 -1 0 1 -0.21 -0.72 -0.07 1 0 " /></filter><filter
     id="filter87"
     inkscape:label="Invert"
     style="color-interpolation-filters:sRGB;"><feColorMatrix
       id="feColorMatrix85"
       result="color2"
       values="-1 0 0 0 1 0 -1 0 0 1 0 0 -1 0 1 -0.21 -0.72 -0.07 1 0 " /></filter><filter
     id="filter91"
     inkscape:label="Invert"
     style="color-interpolation-filters:sRGB;"><feColorMatrix
       id="feColorMatrix89"
       result="color2"
       values="-1 0 0 0 1 0 -1 0 0 1 0 0 -1 0 1 -0.21 -0.72 -0.07 1 0 " /></filter><filter
     id="filter95"
     inkscape:label="Invert"
     style="color-interpolation-filters:sRGB;"><feColorMatrix
       id="feColorMatrix93"
       result="color2"
       values="-1 0 0 0 1 0 -1 0 0 1 0 0 -1 0 1 -0.21 -0.72 -0.07 1 0 " /></filter><filter
     id="filter99"
     inkscape:label="Invert"
     style="color-interpolation-filters:sRGB;"><feColorMatrix
       id="feColorMatrix97"
       result="color2"
       values="-1 0 0 0 1 0 -1 0 0 1 0 0 -1 0 1 -0.21 -0.72 -0.07 1 0 " /></filter><filter
     id="filter103"
     inkscape:label="Invert"
     style="color-interpolation-filters:sRGB;"><feColorMatrix
       id="feColorMatrix101"
       result="color2"
       values="-1 0 0 0 1 0 -1 0 0 1 0 0 -1 0 1 -0.21 -0.72 -0.07 1 0 " /></filter><filter
     id="filter107"
     inkscape:label="Invert"
     style="color-interpolation-filters:sRGB;"><feColorMatrix
       id="feColorMatrix105"
       result="color2"
       values="-1 0 0 0 1 0 -1 0 0 1 0 0 -1 0 1 -0.21 -0.72 -0.07 1 0 " /></filter><filter
     id="filter111"
     inkscape:label="Invert"
     style="color-interpolation-filters:sRGB;"><feColorMatrix
       id="feColorMatrix109"
       result="color2"
       values="-1 0 0 0 1 0 -1 0 0 1 0 0 -1 0 1 -0.21 -0.72 -0.07 1 0 " /></filter><filter
     id="filter115"
     inkscape:label="Invert"
     style="color-interpolation-filters:sRGB;"><feColorMatrix
       id="feColorMatrix113"
       result="color2"
       values="-1 0 0 0 1 0 -1 0 0 1 0 0 -1 0 1 -0.21 -0.72 -0.07 1 0 " /></filter><filter
     id="filter119"
     inkscape:label="Invert"
     style="color-interpolation-filters:sRGB;"><feColorMatrix
       id="feColorMatrix117"
       result="color2"
       values="-1 0 0 0 1 0 -1 0 0 1 0 0 -1 0 1 -0.21 -0.72 -0.07 1 0 " /></filter><filter
     id="filter123"
     inkscape:label="Invert"
     style="color-interpolation-filters:sRGB;"><feColorMatrix
       id="feColorMatrix121"
       result="color2"
       values="-1 0 0 0 1 0 -1 0 0 1 0 0 -1 0 1 -0.21 -0.72 -0.07 1 0 " /></filter><filter
     id="filter127"
     inkscape:label="Invert"
     style="color-interpolation-filters:sRGB;"><feColorMatrix
       id="feColorMatrix125"
       result="color2"
       values="-1 0 0 0 1 0 -1 0 0 1 0 0 -1 0 1 -0.21 -0.72 -0.07 1 0 " /></filter></defs><sodipodi:namedview
   inkscape:current-layer="Capa_1"
   inkscape:window-maximized="1"
   inkscape:window-y="-8"
   inkscape:window-x="-8"
   inkscape:cy="256"
   inkscape:cx="256"
   inkscape:zoom="1.7382812"
   showgrid="false"
   id="namedview51"
   inkscape:window-height="1057"
   inkscape:window-width="1920"
   inkscape:pageshadow="2"
   inkscape:pageopacity="1"
   guidetolerance="10"
   gridtolerance="10"
   objecttolerance="10"
   borderopacity="1"
   bordercolor="#666666"
   pagecolor="#888888" />
<g
   style="filter:url(#filter127)"
   id="g6">
	<g
   id="g4">
		<path
   id="path2"
   d="M504.502,246.628c-1.128-1.41-28.127-34.914-71.893-68.746c-25.848-19.981-52.231-35.935-78.416-47.417    c-33.24-14.576-66.278-21.966-98.193-21.966c-31.916,0-64.952,7.391-98.193,21.966c-26.185,11.481-52.568,27.435-78.417,47.417    c-43.765,33.833-70.764,67.337-71.892,68.747L0,256l7.499,9.372c1.128,1.41,28.126,34.914,71.892,68.746    c25.848,19.981,52.231,35.935,78.417,47.417c33.24,14.576,66.277,21.966,98.193,21.966c31.915,0,64.952-7.391,98.193-21.966    c26.185-11.481,52.568-27.435,78.416-47.417c43.765-33.833,70.765-67.337,71.893-68.746L512,256L504.502,246.628z     M413.701,310.812c-37.12,28.598-94.613,62.687-157.701,62.687c-63.09,0-120.581-34.089-157.701-62.687    c-27.68-21.325-48.521-42.897-59.256-54.806c26.497-29.349,114.623-117.503,216.958-117.503    c63.089,0,120.581,34.089,157.701,62.687c27.683,21.327,48.525,42.9,59.261,54.811    C462.226,267.911,441.384,289.485,413.701,310.812z" />
	</g>
</g>
<g
   style="filter:url(#filter123)"
   id="g12">
	<g
   id="g10">
		<path
   id="path8"
   d="M256,154.988c-55.698,0-101.012,45.315-101.012,101.012S200.303,357.012,256,357.012S357.013,311.698,357.013,256    S311.698,154.988,256,154.988z M256,327.009c-39.154,0-71.009-31.855-71.009-71.009c0-39.154,31.855-71.009,71.009-71.009    s71.009,31.855,71.009,71.009C327.009,295.154,295.154,327.009,256,327.009z" />
	</g>
</g>
<g
   style="filter:url(#filter119)"
   id="g18">
	<g
   id="g16">
		<path
   id="path14"
   d="M256,209.661c-25.551,0-46.339,20.788-46.339,46.339c0,25.551,20.788,46.34,46.339,46.34s46.339-20.788,46.339-46.34    C302.339,230.448,281.552,209.661,256,209.661z M256,272.336c-9.007,0-16.335-7.328-16.335-16.336    c0-9.008,7.328-16.335,16.335-16.335s16.335,7.328,16.335,16.335C272.336,265.007,265.008,272.336,256,272.336z" />
	</g>
</g>
<g
   style="filter:url(#filter115)"
   id="g20">
</g>
<g
   style="filter:url(#filter111)"
   id="g22">
</g>
<g
   style="filter:url(#filter107)"
   id="g24">
</g>
<g
   style="filter:url(#filter103)"
   id="g26">
</g>
<g
   style="filter:url(#filter99)"
   id="g28">
</g>
<g
   style="filter:url(#filter95)"
   id="g30">
</g>
<g
   style="filter:url(#filter91)"
   id="g32">
</g>
<g
   style="filter:url(#filter87)"
   id="g34">
</g>
<g
   style="filter:url(#filter83)"
   id="g36">
</g>
<g
   style="filter:url(#filter79)"
   id="g38">
</g>
<g
   style="filter:url(#filter75)"
   id="g40">
</g>
<g
   style="filter:url(#filter71)"
   id="g42">
</g>
<g
   style="filter:url(#filter67)"
   id="g44">
</g>
<g
   style="filter:url(#filter63)"
   id="g46">
</g>
<g
   style="filter:url(#filter59)"
   id="g48">
</g>
</svg>
